<svg width="20" height="20" viewBox="0 0 20 20" fill="none" xmlns="http://www.w3.org/2000/svg">
<path d="M4.125 1L1.25 4.6V17.2C1.25 17.6774 1.45193 18.1352 1.81138 18.4728C2.17082 18.8104 2.65834 19 3.16667 19H16.5833C17.0917 19 17.5792 18.8104 17.9386 18.4728C18.2981 18.1352 18.5 17.6774 18.5 17.2V4.6L15.625 1H4.125Z" stroke="white" stroke-width="2" stroke-linecap="round" stroke-linejoin="round"/>
<path d="M1.25 4.60028H18.5" stroke="white" stroke-width="2" stroke-linecap="round" stroke-linejoin="round"/>
<path d="M13.7087 8.19983C13.7087 9.15533 13.3048 10.0717 12.5859 10.7473C11.867 11.423 10.892 11.8025 9.87532 11.8025C8.85866 11.8025 7.88364 11.423 7.16475 10.7473C6.44586 10.0717 6.04199 9.15533 6.04199 8.19983" stroke="white" stroke-width="2" stroke-linecap="round" stroke-linejoin="round"/>
</svg>
